<svg width="40" height="40" viewBox="0 0 40 40" fill="none" xmlns="http://www.w3.org/2000/svg">
<path d="M8.83333 2.99998C5.66667 2.99998 3 5.66665 3 8.83332V30.5C3 33.6667 5.66667 36.3333 8.83333 36.3333H26.3333L36.3333 26.3333V8.83332C36.3333 5.66665 33.6667 2.99998 30.5 2.99998H8.83333ZM9.33333 6.33332H30.1667C31.8333 6.33332 33.1667 7.66665 33.1667 9.33332V24.6667H30.6667C27.5 24.6667 24.8333 27.3333 24.8333 30.5V33H9.33333C7.66667 33 6.33333 31.6667 6.33333 30V9.33332C6.33333 7.66665 7.66667 6.33332 9.33333 6.33332Z" fill="#C4C4C4"/>
</svg>
