<svg width="40" height="40" viewBox="0 0 40 40" fill="none" xmlns="http://www.w3.org/2000/svg">
<path d="M21.6666 16.6667H18.3333V10H21.6666V16.6667ZM21.6666 20H18.3333V23.3333H21.6666V20ZM36.6666 6.66668V26.6667C36.6666 27.5507 36.3155 28.3986 35.6903 29.0237C35.0652 29.6488 34.2174 30 33.3333 30H9.99998L3.33331 36.6667V6.66668C3.33331 5.78262 3.6845 4.93478 4.30962 4.30965C4.93474 3.68453 5.78259 3.33334 6.66665 3.33334H33.3333C34.2174 3.33334 35.0652 3.68453 35.6903 4.30965C36.3155 4.93478 36.6666 5.78262 36.6666 6.66668ZM33.3333 6.66668H6.66665V28.6667L8.66665 26.6667H33.3333V6.66668Z" fill="#C4C4C4"/>
</svg>
