<svg width="58" height="58" viewBox="0 0 58 58" fill="none" xmlns="http://www.w3.org/2000/svg">
<path d="M28.81 3.33347C21.9682 3.33347 15.4964 6.00916 10.5962 10.8982C5.69588 15.7873 3.0147 22.2454 3.0147 29.0719C3.0147 35.8985 5.69588 42.3565 10.5962 47.2456C15.4964 52.1347 21.9682 54.8104 28.81 54.8104C35.6519 54.8104 42.1238 52.1347 47.0239 47.2456C51.9243 42.3565 54.6054 35.8985 54.6054 29.0719C54.6054 22.2454 51.9243 15.7873 47.0239 10.8982C42.1238 6.00916 35.6519 3.33347 28.81 3.33347ZM28.81 57.3937C21.2286 57.3937 14.1095 54.442 8.74699 49.0906C3.38449 43.7406 0.425934 36.6367 0.425934 29.0719C0.425934 21.5072 3.38449 14.4033 8.74699 9.05329C14.1095 3.70189 21.2286 0.750244 28.81 0.750244C36.3915 0.750244 43.5106 3.70189 48.8731 9.05329C54.2356 14.4033 57.1942 21.5072 57.1942 29.0719C57.1942 36.6367 54.2356 43.7406 48.8731 49.0906C43.5106 54.442 36.3915 57.3937 28.81 57.3937Z" fill="#CD3266"/>
<path d="M35.0979 9.97647C33.526 8.22397 31.2146 7.30078 28.8108 7.30078C26.3145 7.30078 24.0955 8.22397 22.4313 9.97647C20.8594 11.729 20.0274 14.0362 20.2123 16.6195C20.5822 21.6935 24.3729 25.7518 28.8108 25.7518C33.2487 25.7518 37.0395 21.6935 37.4093 16.6195C37.5017 14.1287 36.6696 11.729 35.0979 9.97647Z" fill="#CD3266"/>
<path d="M43.3261 44.203H14.2022C13.4626 44.203 12.7229 43.8346 12.1682 43.2812C11.6134 42.6354 11.4286 41.8047 11.6134 40.8815C12.3531 37.0081 14.4796 33.7791 17.9005 31.4718C20.9516 29.4433 24.7422 28.3352 28.7179 28.3352C32.6935 28.3352 36.4843 29.4433 39.5353 31.4718C42.9562 33.7791 45.0828 37.0081 45.8223 40.8815C46.0073 41.8047 45.7299 42.6354 45.2677 43.2812C44.8054 43.9271 44.0657 44.203 43.3261 44.203Z" fill="#CD3266"/>
</svg>
