<svg width="58" height="49" viewBox="0 0 58 49" fill="none" xmlns="http://www.w3.org/2000/svg">
<path d="M24.7132 32.4863C24.7132 31.1947 23.6037 30.2729 22.2169 30.2729C21.1998 30.2729 20.645 30.5489 19.9055 31.2872C19.5355 31.657 19.1658 32.1179 18.796 32.5788C17.4091 34.1478 16.0222 35.7154 14.6354 37.2844C13.6184 38.576 13.8032 40.1436 15.0053 41.0668C16.1146 41.9886 17.5015 41.7126 18.611 40.5134C20.5526 38.2986 22.4017 36.0853 24.3433 33.8704C24.5283 33.4096 24.7132 32.8562 24.7132 32.4863Z" fill="#CD3266"/>
<path d="M56.7043 11.068C52.7286 7.65399 48.6604 4.14897 44.6848 0.734999C44.4074 0.459036 43.9452 0.181641 43.3905 0.181641C43.0206 0.181641 42.6508 0.45904 42.281 0.827464C40.8017 2.57997 39.3223 4.51738 38.028 6.08639C37.843 6.36235 37.3808 6.7322 36.9185 6.45482C34.1448 4.70231 31.0938 4.51739 28.4125 4.51739C24.8066 4.51739 21.2009 5.16318 18.2422 5.71653C17.5951 5.80899 17.2253 5.71656 16.7629 5.25568C15.561 4.14898 14.3591 3.13473 13.1571 2.21153C12.0477 1.3808 11.1231 1.47327 10.1985 2.48893C9.64379 3.04228 9.18145 3.59562 8.81167 4.24143C6.50027 7.65397 4.46625 11.2529 2.43222 15.3112C1.87748 16.3269 1.50755 17.2487 1.13776 18.2643C0.583015 19.5545 1.32273 20.1093 2.15485 20.3852C2.43222 20.4777 2.70959 20.6626 3.07938 20.8461C3.44916 21.031 3.72653 21.2159 4.09646 21.4919C4.83602 21.9542 5.66815 22.4151 6.40786 22.876C6.77764 23.0609 7.14742 23.2459 7.51735 23.3369C7.70217 23.4294 7.97954 23.4293 8.1645 23.5218L8.25692 23.6143C8.44188 24.445 8.71926 25.2743 8.81167 26.0126C8.81167 26.105 8.81166 26.29 8.71925 26.3824C8.44188 26.6584 8.16451 27.0283 7.88714 27.3042C7.51735 27.7651 7.14742 28.1349 6.77764 28.5958C6.40785 29.0567 6.13049 29.6115 5.94552 30.1648C5.57574 31.4565 6.03793 32.8391 7.23997 33.4849C8.44188 34.2232 10.0136 34.0397 11.0306 33.024C12.6949 31.2715 14.3591 29.519 16.0234 27.674C16.9479 26.6584 17.0403 25.3668 16.3006 24.2601C15.8384 23.5218 15.0987 23.0609 14.2666 22.9685C13.342 22.7836 12.4175 23.0609 11.5854 23.7067C11.493 23.7992 11.4004 23.8917 11.308 23.8917C11.308 23.7067 11.2156 23.6143 11.2156 23.4294C11.0307 22.6925 10.8457 21.9543 10.7533 21.1235C10.7533 21.0311 10.8457 20.7551 10.9382 20.6626C11.493 19.7394 11.9552 18.8176 12.5099 17.802C13.9892 15.2187 15.4686 12.6355 16.8553 9.96124C17.4101 8.94559 17.8724 8.57717 18.8895 8.39224C19.4443 8.29978 19.999 8.20732 20.5536 8.11628C23.3273 7.65397 26.1935 7.19306 29.1522 7.28553C29.522 7.28553 29.8918 7.28553 30.2617 7.37799C29.8918 7.47045 29.522 7.47046 29.1522 7.47046C27.303 7.56292 25.9161 8.11626 24.8066 9.22295C24.4368 9.59138 23.9745 9.96125 23.5123 10.3297C23.05 10.6995 22.4952 11.0679 22.033 11.5288C21.4783 12.0822 21.2009 12.6355 21.2933 13.1903C21.2933 13.8361 21.6631 14.3895 22.3104 14.7579C24.067 16.0495 25.9161 16.2344 27.7653 15.4961C27.9501 15.4037 28.1351 15.3112 28.3201 15.3112C28.7823 15.1277 29.1522 14.9428 29.522 14.8503C31.1862 14.573 33.0353 14.297 35.3467 14.0196C35.5316 14.0196 35.9014 14.1121 36.0864 14.2045C39.877 17.526 43.6679 20.8461 47.5509 24.1676L49.585 25.9201C50.5096 26.7509 50.6021 27.5816 49.8625 28.5034C49.5851 28.8732 49.0304 29.1492 48.568 29.519L48.4756 29.6115C48.1982 29.795 47.7359 29.8874 47.1812 29.4265C45.5169 27.95 43.7603 26.4749 42.281 25.1833C41.9112 24.9059 41.5413 24.5375 40.9865 24.3526C40.5243 24.1676 39.877 24.3526 39.5073 24.5375C39.2299 24.721 39.0449 24.9984 39.0449 25.2743C38.9525 25.6442 39.0449 25.9201 39.2299 26.1975C39.5073 26.6584 39.877 27.0283 40.247 27.3042C41.1715 28.0425 42.0036 28.7807 42.9282 29.519C43.8527 30.2573 44.6848 30.9941 45.6095 31.7324C45.7019 31.8249 45.8867 32.1023 45.8867 32.2858C45.8867 33.209 45.5169 34.0397 44.7774 34.9615C44.0376 35.7922 43.9452 35.7922 43.0206 35.1464L36.9185 30.2573L36.8261 30.1648C36.6411 29.9799 36.3637 29.795 36.0864 29.795C35.5316 29.795 35.0693 29.795 34.6995 30.0724C34.3297 30.4408 34.2373 31.0866 34.4221 31.5475C34.5147 32.0098 34.8845 32.2858 35.2542 32.5632L35.9014 33.1165C37.5657 34.5006 39.3223 35.8846 41.1715 37.1763C41.9112 37.7296 42.0036 38.1905 41.8187 39.2048C41.8187 39.3897 41.7263 39.4821 41.7263 39.667C41.5413 40.3128 41.0791 40.8662 40.5243 41.0497C39.9696 41.2346 39.3223 41.1422 38.7675 40.6813C38.6751 40.5888 38.5827 40.5888 38.4902 40.4964C38.3978 40.4039 38.3054 40.3129 38.213 40.3129L36.8261 39.2048C35.4392 38.0981 34.1448 36.9913 32.7579 35.8846C32.2031 35.4223 31.6484 35.2389 31.1862 35.1464C30.8164 35.0539 30.4465 35.0539 30.1691 35.2388C29.8918 35.4223 29.7069 35.7922 29.6144 36.2531C29.522 37.1763 30.1691 37.5447 30.5391 37.9131L30.6315 38.0056C32.7579 39.7581 34.8845 41.4196 37.0109 43.1721C37.1035 43.2645 37.1959 43.357 37.1035 43.5405C36.8261 44.4637 36.1788 45.1095 34.8845 45.5704C34.4221 45.7553 34.0523 45.7553 33.59 45.3869C32.8504 44.8321 32.1107 44.3712 31.4636 43.8179C30.5391 43.172 29.522 42.4338 28.5974 41.788C28.2275 41.512 27.7653 41.1422 27.3954 40.8662C27.303 40.7738 27.2106 40.6813 27.0256 40.5888C27.1182 40.4964 27.2106 40.4039 27.2106 40.3129C27.3954 40.1279 27.5804 39.943 27.6728 39.7581C28.0427 39.3896 28.4125 38.9288 28.6898 38.4679C29.522 37.2673 29.2446 35.4223 27.9501 34.4081C27.0256 33.6698 25.084 33.4849 23.9745 34.869C22.6802 36.438 21.2933 38.0056 19.9989 39.5746L19.3517 40.3129C18.6121 41.1422 18.5196 42.0654 18.9819 43.0796C19.4443 44.0028 20.2762 44.6486 21.2009 44.8321C22.2178 45.017 23.1425 44.6486 23.8821 43.9103C24.1595 43.6329 24.5293 43.2645 24.8066 42.8947L24.9916 42.7112C25.5463 43.1721 26.1011 43.5405 26.6558 44.0028C28.3201 45.2019 29.9843 46.4936 31.6484 47.6002C32.2957 48.0611 33.2202 48.3385 33.9599 48.431C34.0524 48.431 34.0523 48.431 34.1448 48.431C36.4562 48.431 38.8601 46.586 39.4149 44.2787C39.5073 43.9103 39.5073 43.9103 39.877 43.9103C41.0791 43.8179 42.1884 43.2645 43.0206 42.3413C44.0376 41.1422 44.2226 39.7581 44.315 38.6514C44.315 38.4665 44.4074 38.283 44.4074 38.283C46.534 37.2673 47.8283 35.4224 48.1983 32.5632C48.1983 32.2858 48.2907 32.2858 48.4756 32.1933C50.6945 31.6399 52.1739 30.1648 52.7286 27.95C53.1908 26.105 52.6361 24.6285 51.2492 23.7067C51.0644 23.6143 50.8794 23.4293 50.6945 23.2458L50.6021 23.1534C51.9889 21.3084 52.3587 19.2785 52.6361 17.802C52.7286 17.1562 53.0984 16.6953 53.5606 16.2344C54.6701 15.1277 55.6872 14.0196 56.7043 12.8205C57.074 12.452 57.2589 12.0822 57.1665 11.6213C57.2589 11.7137 57.074 11.3453 56.7043 11.068ZM53.838 12.2671C52.9135 13.2813 52.0813 14.2045 51.1568 15.1277L41.0791 6.82468L41.6338 6.17885C42.3734 5.34812 43.0206 4.51738 43.7603 3.68807H43.8527L44.5924 4.24143C45.7943 5.25566 47.0888 6.27129 48.2907 7.28553C49.4001 8.2073 50.5096 9.22297 51.6191 10.2372C52.0813 10.6995 52.5437 11.0679 53.0984 11.5288C53.1908 11.8062 53.4682 12.0822 53.838 12.2671ZM14.9139 7.56292C14.9139 7.65396 14.7289 7.93136 14.6365 8.11628C14.544 8.29978 14.4515 8.39225 14.3591 8.57717C12.6023 11.8062 10.7533 15.0353 8.99663 18.3553L7.88714 20.3852L4.28128 18.2643C6.59268 13.6512 8.99663 9.03807 12.0477 4.88725C12.7873 5.53306 13.4345 6.17887 14.0818 6.82468C14.1742 6.91714 14.3591 7.00818 14.4515 7.10064C14.544 7.1931 14.9139 7.378 14.9139 7.56292Z" fill="#000"/>
<path d="M20.2757 30.3499C20.5531 29.3357 19.9983 28.0441 19.0736 27.5832C18.1491 27.1209 16.7622 27.3058 16.0227 28.0441C14.9132 29.1508 13.8037 30.3499 12.7866 31.5491C11.9546 32.4722 11.1225 33.394 10.5677 34.5022C9.55066 36.3471 10.7526 38.4681 12.7866 38.5605C13.1565 38.377 13.5263 38.2845 13.8037 38.0072C15.8377 35.7013 17.8717 33.3954 19.9058 31.0882C20.0907 30.9032 20.1831 30.6273 20.2757 30.3499Z" fill="#000"/>
</svg>
