<svg width="11" height="24" viewBox="0 0 11 24" fill="none" xmlns="http://www.w3.org/2000/svg">
<path d="M6.12039 18.3504C6.12039 18.3504 6.1204 18.4429 6.21295 18.4429L9.35648 22.8711C9.44889 23.0546 9.63385 23.0546 9.81867 23.0546C9.91123 23.0546 10.0036 22.9635 10.096 22.8711C10.096 22.7786 10.096 22.7786 10.096 22.6861L10.0036 17.2437V17.1512L9.72626 16.228L5.84302 17.4272L6.12039 18.3504Z" fill="#555454"/>
<path d="M2.4227 0.545189C1.40562 0.915035 0.850872 2.29912 1.22066 3.49828L1.68299 4.9734L0.481097 5.34324C0.388545 5.34324 0.296133 5.4357 0.203722 5.52674C0.11117 5.6192 0.11117 5.71167 0.203722 5.80413L2.33016 12.4457C2.42271 12.6306 2.60752 12.8156 2.8849 12.7231C2.97745 12.7231 3.06986 12.6306 3.16227 12.5382C3.25482 12.4457 3.25482 12.3547 3.16227 12.2622L1.12825 6.08151L1.86796 5.80413L5.38126 16.6904L9.26448 15.4913L5.75104 4.60497C5.936 4.51251 6.02841 4.42004 5.936 4.14408C5.84359 3.95916 5.56622 4.05161 5.38126 3.95915L4.91893 2.39015C4.73411 1.09853 3.53219 0.269226 2.4227 0.545189Z" fill="#555454"/>
</svg>
