<svg width="58" height="58" viewBox="0 0 58 58" fill="none" xmlns="http://www.w3.org/2000/svg">
<path d="M28.81 2.99764C21.9682 2.99764 15.4964 5.67306 10.5962 10.5624C5.69588 15.4519 3.0147 21.9096 3.0147 28.7364C3.0147 35.5632 5.69588 42.0213 10.5962 46.9104C15.4964 51.7995 21.9682 54.4752 28.81 54.4752C35.6519 54.4752 42.1238 51.7995 47.0239 46.9104C51.9243 42.0213 54.6054 35.5632 54.6054 28.7364C54.6054 21.9096 51.9243 15.4519 47.0239 10.5624C42.1238 5.67306 35.6519 2.99764 28.81 2.99764ZM28.81 57.0584C21.2286 57.0584 14.1095 54.1068 8.74699 48.7554C3.38449 43.4054 0.425934 36.3012 0.425934 28.7364C0.425934 21.1716 3.38449 14.0682 8.74699 8.71733C14.1095 3.36664 21.2286 0.414551 28.81 0.414551C36.3915 0.414551 43.5106 3.36664 48.8731 8.71733C54.2356 14.0682 57.1942 21.1716 57.1942 28.7364C57.1942 36.3012 54.2356 43.4054 48.8731 48.7554C43.5106 54.1068 36.3915 57.0584 28.81 57.0584Z" fill="#000"/>
<path d="M28.8107 26.7047C24.4653 26.7047 20.5822 22.6455 20.2123 17.5716C20.0274 14.9884 20.8594 12.6821 22.4313 10.9293C24.0031 9.17639 26.3145 8.25391 28.8107 8.25391C31.3071 8.25391 33.526 9.17639 35.1903 10.9293C36.8545 12.6821 37.5941 15.0807 37.4093 17.5716C36.9469 22.6455 33.1563 26.7047 28.8107 26.7047ZM28.8107 10.837C27.054 10.837 25.4824 11.4828 24.3729 12.6821C23.2634 13.8814 22.7086 15.542 22.8936 17.387C23.171 20.9849 25.8521 24.0293 28.8107 24.0293C31.7694 24.0293 34.4506 20.9849 34.7279 17.387C34.8205 15.6342 34.3582 13.9736 33.1563 12.7743C32.0468 11.575 30.4749 10.837 28.8107 10.837Z" fill="#000"/>
<path d="M43.3261 45.1564H14.2022C13.3702 45.1564 12.7229 44.7865 12.1682 44.2332C11.6134 43.5874 11.4286 42.7566 11.6134 41.8349C12.3531 37.9599 14.4796 34.7311 17.9005 32.4247C20.9516 30.3951 24.7422 29.2881 28.7179 29.2881C32.6935 29.2881 36.4843 30.3951 39.5353 32.4247C42.9562 34.7311 45.0828 37.9599 45.8223 41.8349C46.0073 42.7566 45.7299 43.5874 45.2677 44.2332C44.8054 44.7865 44.0657 45.1564 43.3261 45.1564ZM14.2947 42.4807H43.3261C43.3261 42.4807 43.3261 42.3882 43.3261 42.2957C42.0316 35.1923 34.9125 31.9634 28.8104 31.9634C22.7082 31.9634 15.5891 35.1923 14.2947 42.2957C14.2022 42.3882 14.2022 42.4807 14.2947 42.4807Z" fill="#000"/>
</svg>
