<svg width="33" height="42" viewBox="0 0 33 42" fill="none" xmlns="http://www.w3.org/2000/svg">
<path d="M26.8699 41.4888H6.06719C2.83112 41.4888 0.14994 38.8145 0.14994 35.5855V5.97213C0.14994 2.74308 2.83112 0.0673828 6.06719 0.0673828H26.8699C30.1058 0.0673828 32.7872 2.74308 32.7872 5.97213V35.5855C32.7872 38.8145 30.1058 41.4888 26.8699 41.4888ZM6.06719 2.92798C4.40295 2.92798 3.1085 4.2182 3.1085 5.87966V35.493C3.1085 37.153 4.40295 38.4447 6.06719 38.4447H26.8699C28.5342 38.4447 29.8285 37.153 29.8285 35.493V5.87966C29.8285 4.2182 28.5342 2.92798 26.8699 2.92798H6.06719Z" fill="#CD3266"/>
<path d="M23.9109 10.3066H9.02533C8.19321 10.3066 7.54605 9.66084 7.54605 8.83012C7.54605 8.00081 8.19321 7.35498 9.02533 7.35498H23.9109C24.7431 7.35498 25.3902 8.00081 25.3902 8.83012C25.3902 9.66084 24.7431 10.3066 23.9109 10.3066Z" fill="#CD3266"/>
<path d="M23.9109 17.7788H9.02533C8.19321 17.7788 7.54605 17.133 7.54605 16.3023C7.54605 15.473 8.19321 14.8271 9.02533 14.8271H23.9109C24.7431 14.8271 25.3902 15.473 25.3902 16.3023C25.3902 17.133 24.7431 17.7788 23.9109 17.7788Z" fill="#CD3266"/>
<path d="M16.422 25.1601H9.02533C8.19335 25.1601 7.54605 24.5143 7.54605 23.685C7.54605 22.8543 8.19335 22.2085 9.02533 22.2085H16.422C17.2541 22.2085 17.9013 22.8543 17.9013 23.685C17.9013 24.5143 17.2541 25.1601 16.422 25.1601Z" fill="#CD3266"/>
</svg>
