<svg width="30" height="30" viewBox="0 0 30 30" fill="none" xmlns="http://www.w3.org/2000/svg">
<path d="M20 10H3.33333V3.33333H20V10ZM15 26.6667C13.6739 26.6667 12.4021 26.1399 11.4645 25.2022C10.5268 24.2645 10 22.9927 10 21.6667C10 20.3406 10.5268 19.0688 11.4645 18.1311C12.4021 17.1934 13.6739 16.6667 15 16.6667C16.3261 16.6667 17.5979 17.1934 18.5355 18.1311C19.4732 19.0688 20 20.3406 20 21.6667C20 22.9927 19.4732 24.2645 18.5355 25.2022C17.5979 26.1399 16.3261 26.6667 15 26.6667ZM23.3333 0H3.33333C2.44928 0 1.60143 0.351189 0.976311 0.976311C0.351189 1.60143 0 2.44928 0 3.33333V26.6667C0 27.5507 0.351189 28.3986 0.976311 29.0237C1.60143 29.6488 2.44928 30 3.33333 30H26.6667C27.5507 30 28.3986 29.6488 29.0237 29.0237C29.6488 28.3986 30 27.5507 30 26.6667V6.66667L23.3333 0Z" fill="white"/>
</svg>
