<svg width="100" height="67" viewBox="0 0 100 67" fill="none" xmlns="http://www.w3.org/2000/svg">
<rect x="0.5" y="0.5" width="99" height="65.6667" stroke="#A6A6A6" stroke-dasharray="2 2"/>
<path d="M32.2784 29.0909V30.5114H26.625V29.0909H32.2784ZM28.2727 26.4773H29.9489V36.875C29.9489 37.3485 30.0175 37.7036 30.1548 37.9403C30.2969 38.1723 30.4768 38.3286 30.6946 38.4091C30.9171 38.4848 31.1515 38.5227 31.3977 38.5227C31.5824 38.5227 31.7339 38.5133 31.8523 38.4943C31.9706 38.4706 32.0653 38.4517 32.1364 38.4375L32.4773 39.9432C32.3636 39.9858 32.205 40.0284 32.0014 40.071C31.7978 40.1184 31.5398 40.142 31.2273 40.142C30.7538 40.142 30.2898 40.0402 29.8352 39.8366C29.3854 39.633 29.0114 39.3229 28.7131 38.9062C28.4195 38.4896 28.2727 37.964 28.2727 37.3295V26.4773ZM39.2564 40.2273C38.2053 40.2273 37.2985 39.9953 36.5362 39.5312C35.7786 39.0625 35.1939 38.4091 34.782 37.571C34.3748 36.7282 34.1712 35.7481 34.1712 34.6307C34.1712 33.5133 34.3748 32.5284 34.782 31.6761C35.1939 30.8191 35.7668 30.1515 36.5007 29.6733C37.2393 29.1903 38.1011 28.9489 39.0859 28.9489C39.6541 28.9489 40.2152 29.0436 40.7692 29.233C41.3232 29.4223 41.8274 29.7301 42.282 30.1562C42.7365 30.5777 43.0987 31.1364 43.3686 31.8324C43.6385 32.5284 43.7734 33.3854 43.7734 34.4034V35.1136H35.3643V33.6648H42.0689C42.0689 33.0492 41.9458 32.5 41.6996 32.017C41.4581 31.5341 41.1125 31.1529 40.6626 30.8736C40.2176 30.5942 39.692 30.4545 39.0859 30.4545C38.4183 30.4545 37.8407 30.6203 37.353 30.9517C36.87 31.2784 36.4983 31.7045 36.2379 32.2301C35.9775 32.7557 35.8473 33.3191 35.8473 33.9205V34.8864C35.8473 35.7102 35.9893 36.4086 36.2734 36.9815C36.5623 37.5497 36.9624 37.983 37.4737 38.2812C37.9851 38.5748 38.5793 38.7216 39.2564 38.7216C39.6967 38.7216 40.0945 38.66 40.4496 38.5369C40.8094 38.4091 41.1196 38.2197 41.38 37.9688C41.6404 37.7131 41.8416 37.3958 41.9837 37.017L43.603 37.4716C43.4325 38.0208 43.1461 38.5038 42.7436 38.9205C42.3411 39.3324 41.844 39.6544 41.2521 39.8864C40.6603 40.1136 39.995 40.2273 39.2564 40.2273ZM47.2802 29.0909L49.8938 33.5511L52.5075 29.0909H54.4393L50.9165 34.5455L54.4393 40H52.5075L49.8938 35.767L47.2802 40H45.3484L48.8143 34.5455L45.3484 29.0909H47.2802ZM61.5753 29.0909V30.5114H55.9219V29.0909H61.5753ZM57.5696 26.4773H59.2457V36.875C59.2457 37.3485 59.3144 37.7036 59.4517 37.9403C59.5938 38.1723 59.7737 38.3286 59.9915 38.4091C60.214 38.4848 60.4484 38.5227 60.6946 38.5227C60.8793 38.5227 61.0308 38.5133 61.1491 38.4943C61.2675 38.4706 61.3622 38.4517 61.4332 38.4375L61.7741 39.9432C61.6605 39.9858 61.5019 40.0284 61.2983 40.071C61.0947 40.1184 60.8366 40.142 60.5241 40.142C60.0507 40.142 59.5866 40.0402 59.1321 39.8366C58.6823 39.633 58.3082 39.3229 58.0099 38.9062C57.7164 38.4896 57.5696 37.964 57.5696 37.3295V26.4773ZM68.4112 40.2273C67.4264 40.2273 66.5623 39.9929 65.8189 39.5241C65.0803 39.0554 64.5026 38.3996 64.0859 37.5568C63.674 36.714 63.468 35.7292 63.468 34.6023C63.468 33.4659 63.674 32.474 64.0859 31.6264C64.5026 30.7789 65.0803 30.1207 65.8189 29.652C66.5623 29.1832 67.4264 28.9489 68.4112 28.9489C69.3961 28.9489 70.2578 29.1832 70.9964 29.652C71.7398 30.1207 72.3175 30.7789 72.7294 31.6264C73.1461 32.474 73.3544 33.4659 73.3544 34.6023C73.3544 35.7292 73.1461 36.714 72.7294 37.5568C72.3175 38.3996 71.7398 39.0554 70.9964 39.5241C70.2578 39.9929 69.3961 40.2273 68.4112 40.2273ZM68.4112 38.7216C69.1593 38.7216 69.7749 38.5298 70.2578 38.1463C70.7408 37.7628 71.0982 37.2585 71.3303 36.6335C71.5623 36.0085 71.6783 35.3314 71.6783 34.6023C71.6783 33.8731 71.5623 33.1937 71.3303 32.5639C71.0982 31.9342 70.7408 31.4252 70.2578 31.0369C69.7749 30.6487 69.1593 30.4545 68.4112 30.4545C67.6631 30.4545 67.0476 30.6487 66.5646 31.0369C66.0817 31.4252 65.7242 31.9342 65.4922 32.5639C65.2602 33.1937 65.1442 33.8731 65.1442 34.6023C65.1442 35.3314 65.2602 36.0085 65.4922 36.6335C65.7242 37.2585 66.0817 37.7628 66.5646 38.1463C67.0476 38.5298 67.6631 38.7216 68.4112 38.7216Z" fill="black"/>
</svg>
