<svg width="20" height="20" viewBox="0 0 40 40" fill="none" xmlns="http://www.w3.org/2000/svg">
<path d="M25 33.1333C25.0666 33.6333 24.9 34.1667 24.5166 34.5167C24.3624 34.6712 24.1793 34.7937 23.9777 34.8774C23.7761 34.961 23.5599 35.0041 23.3416 35.0041C23.1234 35.0041 22.9072 34.961 22.7056 34.8774C22.504 34.7937 22.3208 34.6712 22.1666 34.5167L15.4833 27.8333C15.3015 27.6556 15.1633 27.4383 15.0795 27.1983C14.9956 26.9584 14.9684 26.7022 15 26.45V17.9167L7.01664 7.7C6.74599 7.35255 6.62386 6.9121 6.67695 6.47488C6.73004 6.03767 6.95403 5.63924 7.29997 5.36667C7.61664 5.13333 7.96664 5 8.33331 5H31.6666C32.0333 5 32.3833 5.13333 32.7 5.36667C33.0459 5.63924 33.2699 6.03767 33.323 6.47488C33.3761 6.9121 33.254 7.35255 32.9833 7.7L25 17.9167V33.1333ZM11.7333 8.33333L18.3333 16.7667V25.9667L21.6666 29.3V16.75L28.2666 8.33333H11.7333Z" fill="#663399"/>
</svg>
