<svg width="28" height="28" viewBox="0 0 34 34" fill="none" xmlns="http://www.w3.org/2000/svg">
<path d="M12 33.6666C11.558 33.6666 11.1341 33.491 10.8215 33.1784C10.509 32.8659 10.3334 32.4419 10.3334 31.9999V26.9999H3.66671C2.78265 26.9999 1.93481 26.6487 1.30968 26.0236C0.684563 25.3985 0.333374 24.5506 0.333374 23.6666V3.66659C0.333374 2.78253 0.684563 1.93468 1.30968 1.30956C1.93481 0.684441 2.78265 0.333252 3.66671 0.333252H30.3334C31.2174 0.333252 32.0653 0.684441 32.6904 1.30956C33.3155 1.93468 33.6667 2.78253 33.6667 3.66659V23.6666C33.6667 24.5506 33.3155 25.3985 32.6904 26.0236C32.0653 26.6487 31.2174 26.9999 30.3334 26.9999H20.1667L14 33.1833C13.6667 33.4999 13.25 33.6666 12.8334 33.6666H12ZM13.6667 23.6666V28.7999L18.8 23.6666H30.3334V3.66659H3.66671V23.6666H13.6667Z" fill="white"/>
</svg>
