<svg width="254" height="53" viewBox="0 0 254 53" fill="none" xmlns="http://www.w3.org/2000/svg">
<path d="M42.4635 0.0242375V24.8849C42.4635 25.002 42.4635 25.608 42.4432 26.5008C41.944 26.124 41.4208 25.7799 40.877 25.4706C38.0987 23.9187 34.8884 23.3156 31.735 23.7532C28.5816 24.1907 25.6579 25.645 23.4091 27.8945C21.2114 30.0205 19.7774 32.8106 19.3295 35.8326C19.2149 36.6056 19.158 37.3861 19.1595 38.1676C19.1013 41.3275 20.1186 44.4136 22.0452 46.9217L22.0694 46.954H17.8644C15.9682 46.9539 14.1034 46.4717 12.4457 45.5529C10.788 44.6341 9.39215 43.3089 8.38977 41.7023C7.28668 40.214 6.69218 38.4111 6.69398 36.5597V0H0.829529V37.194C0.830602 41.3111 2.46962 45.2592 5.38624 48.1705C8.30286 51.0817 12.2583 52.7177 16.3831 52.7187H48.3198V0.0242375H42.4635ZM25.0968 36.6042C25.4027 34.8497 26.267 33.2404 27.5615 32.015C27.6546 31.9181 27.7558 31.8251 27.857 31.7322C29.0942 30.5674 30.6619 29.8125 32.3454 29.571C32.8039 29.5058 33.2664 29.4734 33.7295 29.474C35.9077 29.4701 38.0084 30.2803 39.6181 31.7449C41.2278 33.2096 42.2299 35.2227 42.4271 37.3879C42.4473 37.6505 42.4594 37.9131 42.4594 38.1958V46.95H33.7498C31.4316 46.9258 29.2153 45.9956 27.5764 44.359C25.9375 42.7223 25.0066 40.5097 24.9834 38.1958C24.9744 37.663 25.0123 37.1304 25.0968 36.6042Z" fill="#663399"/>
<path d="M36.9876 5.58727H12.2346V7.86972H36.9876V5.58727Z" fill="#663399"/>
<path d="M36.9876 10.6853H12.2346V12.9678H36.9876V10.6853Z" fill="#663399"/>
<path d="M36.9876 15.7873H12.2346V18.0698H36.9876V15.7873Z" fill="#663399"/>
<path d="M133.648 17.573L120.089 35.2106L133.648 52.7431H124.813L115.755 40.8743L106.645 52.7431H97.862L111.42 35.2106L97.862 17.573H106.426L115.755 29.6034L125.031 17.573H133.648Z" fill="black"/>
<path d="M138.423 35.17C138.421 31.9091 139.329 28.712 141.044 25.9368C142.759 23.1616 145.215 20.918 148.136 19.4574C151.057 17.9967 154.328 17.3767 157.582 17.6667C160.836 17.9567 163.944 19.1454 166.56 21.0996V0.0242004H173.634V52.7429H156.029C153.714 52.7542 151.419 52.3073 149.278 51.4282C147.137 50.549 145.192 49.255 143.555 47.621C141.918 45.987 140.621 44.0453 139.741 41.9082C138.86 39.771 138.412 37.4809 138.423 35.17ZM145.445 35.17C145.475 37.9626 146.599 40.6325 148.578 42.6073C150.556 44.5821 153.231 45.7045 156.029 45.734H166.552V35.17C166.497 32.411 165.361 29.7832 163.387 27.8511C161.413 25.9189 158.759 24.8367 155.994 24.8367C153.23 24.8367 150.575 25.9189 148.601 27.8511C146.627 29.7832 145.491 32.411 145.437 35.17H145.445Z" fill="black"/>
<path d="M196.016 17.5972C200.677 17.6227 205.14 19.4823 208.437 22.7724C211.733 26.0624 213.596 30.5174 213.621 35.1702C213.62 38.6446 212.588 42.0408 210.653 44.9294C208.719 47.8179 205.97 50.0691 202.754 51.3984C199.538 52.7276 195.999 53.0752 192.585 52.3972C189.171 51.7192 186.035 50.046 183.574 47.5892C181.112 45.1324 179.436 42.0023 178.757 38.5946C178.077 35.187 178.426 31.6548 179.757 28.4447C181.089 25.2345 183.344 22.4906 186.238 20.5598C189.132 18.629 192.535 17.598 196.016 17.5972ZM196.016 45.7341C198.493 45.7585 200.902 44.9233 202.83 43.3713C204.759 41.8193 206.087 39.6468 206.589 37.2253C207.09 34.8038 206.733 32.2836 205.579 30.0956C204.425 27.9076 202.546 26.1876 200.262 25.2297C197.978 24.2718 195.432 24.1355 193.058 24.844C190.685 25.5526 188.632 27.062 187.25 29.1143C185.868 31.1665 185.243 33.6342 185.482 36.0953C185.721 38.5565 186.81 40.8583 188.561 42.6073C189.519 43.6149 190.676 44.413 191.96 44.9512C193.243 45.4894 194.624 45.756 196.016 45.7341Z" fill="black"/>
<path d="M253.608 45.7342V52.7432H236.002C233.687 52.7549 231.392 52.3084 229.251 51.4295C227.11 50.5505 225.164 49.2566 223.527 47.6224C221.89 45.9883 220.594 44.0464 219.713 41.909C218.832 39.7717 218.385 37.4812 218.397 35.1702C218.399 30.8195 220.019 26.6245 222.944 23.3981C225.868 20.1717 229.888 18.1438 234.225 17.7072C238.562 17.2706 242.906 18.4564 246.417 21.0349C249.928 23.6135 252.355 27.4011 253.227 31.6637H245.942C245.251 29.6187 243.927 27.8451 242.162 26.5979C240.367 25.3185 238.212 24.6397 236.006 24.6588C233.242 24.7128 230.61 25.8468 228.674 27.8171C226.738 29.7874 225.654 32.4369 225.654 35.1965C225.654 37.9561 226.738 40.6056 228.674 42.5759C230.61 44.5462 233.242 45.6802 236.006 45.7342H253.608Z" fill="black"/>
<path d="M57.8753 17.573V42.3852C57.8753 48.1055 62.6268 52.7431 68.4872 52.7431H93.0862V17.573H86.0845V45.7624H70.7941C70.0255 45.771 69.2628 45.6283 68.5495 45.3426C67.8362 45.0569 67.1863 44.6337 66.6368 44.0973C66.0874 43.5609 65.6491 42.9217 65.3472 42.2162C65.0453 41.5107 64.8855 40.7527 64.877 39.9856V17.573H57.8753Z" fill="black"/>
</svg>
