<svg width="26" height="26" viewBox="0 0 26 26" fill="none" xmlns="http://www.w3.org/2000/svg">
<path d="M13 3C10.3478 3 7.8043 4.05357 5.92893 5.92893C4.05357 7.8043 3 10.3478 3 13C3 15.6522 4.05357 18.1957 5.92893 20.0711C7.8043 21.9464 10.3478 23 13 23C15.6522 23 18.1957 21.9464 20.0711 20.0711C21.9464 18.1957 23 15.6522 23 13C23 10.3478 21.9464 7.8043 20.0711 5.92893C18.1957 4.05357 15.6522 3 13 3ZM0.5 13C0.5 6.09625 6.09625 0.5 13 0.5C19.9037 0.5 25.5 6.09625 25.5 13C25.5 19.9037 19.9037 25.5 13 25.5C6.09625 25.5 0.5 19.9037 0.5 13Z" fill="#343A40"/>
<path d="M13 10.5C13.3315 10.5 13.6495 10.6317 13.8839 10.8661C14.1183 11.1005 14.25 11.4185 14.25 11.75V19.25C14.25 19.5815 14.1183 19.8995 13.8839 20.1339C13.6495 20.3683 13.3315 20.5 13 20.5C12.6685 20.5 12.3505 20.3683 12.1161 20.1339C11.8817 19.8995 11.75 19.5815 11.75 19.25V11.75C11.75 11.4185 11.8817 11.1005 12.1161 10.8661C12.3505 10.6317 12.6685 10.5 13 10.5ZM14.875 7.375C14.875 7.87228 14.6775 8.34919 14.3258 8.70083C13.9742 9.05246 13.4973 9.25 13 9.25C12.5027 9.25 12.0258 9.05246 11.6742 8.70083C11.3225 8.34919 11.125 7.87228 11.125 7.375C11.125 6.87772 11.3225 6.40081 11.6742 6.04917C12.0258 5.69754 12.5027 5.5 13 5.5C13.4973 5.5 13.9742 5.69754 14.3258 6.04917C14.6775 6.40081 14.875 6.87772 14.875 7.375Z" fill="#343A40"/>
</svg>
