<svg width="30" height="30" viewBox="0 0 30 30" fill="none" xmlns="http://www.w3.org/2000/svg">
<path d="M26.6667 0H3.33333C1.48333 0 0 1.48333 0 3.33333V10H3.33333V3.33333H26.6667V26.6667H3.33333V20H0V26.6667C0 27.5507 0.351189 28.3986 0.976311 29.0237C1.60143 29.6488 2.44928 30 3.33333 30H26.6667C27.5507 30 28.3986 29.6488 29.0237 29.0237C29.6488 28.3986 30 27.5507 30 26.6667V3.33333C30 2.44928 29.6488 1.60143 29.0237 0.976311C28.3986 0.351189 27.5507 0 26.6667 0ZM11.8 20.9667L14.1667 23.3333L22.5 15L14.1667 6.66667L11.8 9.01667L16.1167 13.3333H0V16.6667H16.1167L11.8 20.9667Z" fill="#C4C4C4"/>
</svg>
