<svg width="34" height="34" viewBox="0 0 34 34" fill="none" xmlns="http://www.w3.org/2000/svg">
<path d="M17 30.3333C9.65001 30.3333 3.66668 24.3499 3.66668 16.9999C3.66668 9.64992 9.65001 3.66659 17 3.66659C24.35 3.66659 30.3333 9.64992 30.3333 16.9999C30.3333 24.3499 24.35 30.3333 17 30.3333ZM17 0.333252C14.8113 0.333252 12.644 0.764348 10.622 1.60193C8.59986 2.4395 6.76254 3.66716 5.2149 5.21481C2.08929 8.34041 0.333344 12.5796 0.333344 16.9999C0.333344 21.4202 2.08929 25.6594 5.2149 28.785C6.76254 30.3327 8.59986 31.5603 10.622 32.3979C12.644 33.2355 14.8113 33.6666 17 33.6666C21.4203 33.6666 25.6595 31.9106 28.7851 28.785C31.9107 25.6594 33.6667 21.4202 33.6667 16.9999C33.6667 14.8112 33.2356 12.644 32.398 10.6219C31.5604 8.59977 30.3328 6.76245 28.7851 5.21481C27.2375 3.66716 25.4002 2.4395 23.3781 1.60193C21.356 0.764348 19.1887 0.333252 17 0.333252ZM18.6667 8.66658H15.3333V15.3333H8.66668V18.6666H15.3333V25.3333H18.6667V18.6666H25.3333V15.3333H18.6667V8.66658Z" fill="white"/>
</svg>
