<svg width="40" height="40" viewBox="0 0 40 40" fill="none" xmlns="http://www.w3.org/2000/svg">
<path d="M30.8333 4H9.16665C5.99998 4 3.33331 6.66667 3.33331 9.83333V31.5C3.33331 34.6667 5.99998 37.3333 9.16665 37.3333H26.6666L36.6666 27.3333V9.83333C36.6666 6.66667 34 4 30.8333 4ZM33.5 25.6667H31C27.8333 25.6667 25.1666 28.3333 25.1666 31.5V34H9.66665C7.99998 34 6.66665 32.6667 6.66665 31V10.3333C6.66665 8.66667 7.99998 7.33333 9.66665 7.33333H30.5C32.1666 7.33333 33.5 8.66667 33.5 10.3333V25.6667ZM11.6666 12.3333H28.3333V15.6667H11.6666V12.3333ZM11.6666 19H28.3333V22.3333H11.6666V19ZM11.6666 25.6667H21.6666V29H11.6666V25.6667Z" fill="#C4C4C4"/>
</svg>
