<svg width="25" height="28" viewBox="0 0 25 28" fill="none" xmlns="http://www.w3.org/2000/svg">
<path d="M21.75 25.25H8V7.75H21.75V25.25ZM21.75 5.25H8C7.33696 5.25 6.70107 5.51339 6.23223 5.98223C5.76339 6.45107 5.5 7.08696 5.5 7.75V25.25C5.5 25.913 5.76339 26.5489 6.23223 27.0178C6.70107 27.4866 7.33696 27.75 8 27.75H21.75C22.413 27.75 23.0489 27.4866 23.5178 27.0178C23.9866 26.5489 24.25 25.913 24.25 25.25V7.75C24.25 7.08696 23.9866 6.45107 23.5178 5.98223C23.0489 5.51339 22.413 5.25 21.75 5.25ZM18 0.25H3C2.33696 0.25 1.70107 0.513392 1.23223 0.982233C0.763392 1.45107 0.5 2.08696 0.5 2.75V20.25H3V2.75H18V0.25Z" fill="#343A40"/>
</svg>
