<svg width="34" height="34" viewBox="0 0 34 34" fill="none" xmlns="http://www.w3.org/2000/svg">
<path d="M5.83333 -1.52588e-05C2.66667 -1.52588e-05 0 2.66665 0 5.83332V27.5C0 30.6667 2.66667 33.3333 5.83333 33.3333H23.3333L33.3333 23.3333V5.83332C33.3333 2.66665 30.6667 -1.52588e-05 27.5 -1.52588e-05H5.83333ZM6.33333 3.33332H27.1667C28.8333 3.33332 30.1667 4.66665 30.1667 6.33332V21.6667H27.6667C24.5 21.6667 21.8333 24.3333 21.8333 27.5V30H6.33333C4.66667 30 3.33333 28.6667 3.33333 27V6.33332C3.33333 4.66665 4.66667 3.33332 6.33333 3.33332Z" fill="#C4C4C4"/>
</svg>
