<svg width="24" height="28" viewBox="0 0 24 28" fill="none" xmlns="http://www.w3.org/2000/svg">
<path d="M20.75 25H3.25V5H5.75V8.75H18.25V5H20.75V25ZM12 2.5C12.3315 2.5 12.6495 2.6317 12.8839 2.86612C13.1183 3.10054 13.25 3.41848 13.25 3.75C13.25 4.08152 13.1183 4.39946 12.8839 4.63388C12.6495 4.8683 12.3315 5 12 5C11.6685 5 11.3505 4.8683 11.1161 4.63388C10.8817 4.39946 10.75 4.08152 10.75 3.75C10.75 3.41848 10.8817 3.10054 11.1161 2.86612C11.3505 2.6317 11.6685 2.5 12 2.5ZM20.75 2.5H15.525C15 1.05 13.625 0 12 0C10.375 0 9 1.05 8.475 2.5H3.25C2.58696 2.5 1.95107 2.76339 1.48223 3.23223C1.01339 3.70107 0.75 4.33696 0.75 5V25C0.75 25.663 1.01339 26.2989 1.48223 26.7678C1.95107 27.2366 2.58696 27.5 3.25 27.5H20.75C21.413 27.5 22.0489 27.2366 22.5178 26.7678C22.9866 26.2989 23.25 25.663 23.25 25V5C23.25 4.33696 22.9866 3.70107 22.5178 3.23223C22.0489 2.76339 21.413 2.5 20.75 2.5Z" fill="#343A40"/>
</svg>
