<svg width="34" height="34" viewBox="0 0 34 34" fill="none" xmlns="http://www.w3.org/2000/svg">
<path d="M18.3333 15H23.3333V18.3333H18.3333V23.3333H15V18.3333H9.99997V15H15V9.99998H18.3333V15ZM33.3333 5.83332V23.3333L23.3333 33.3333H5.8333C2.66664 33.3333 -3.05176e-05 30.6666 -3.05176e-05 27.5V5.83332C-3.05176e-05 2.66665 2.66664 -1.52588e-05 5.8333 -1.52588e-05H27.5C30.6666 -1.52588e-05 33.3333 2.66665 33.3333 5.83332ZM30 6.33332C30 4.66665 28.6666 3.33332 27 3.33332H6.3333C4.66664 3.33332 3.3333 4.66665 3.3333 6.33332V27.1666C3.3333 28.8333 4.66664 30.1666 6.3333 30.1666H21.6666V27.6666C21.6666 24.5 24.3333 21.8333 27.5 21.8333H30V6.33332Z" fill="white"/>
</svg>
