<svg width="34" height="34" viewBox="0 0 34 34" fill="none" xmlns="http://www.w3.org/2000/svg">
<path fill-rule="evenodd" clip-rule="evenodd" d="M8.66683 0.333374C6.45669 0.333374 4.33708 1.21135 2.77427 2.77415C1.21147 4.33695 0.333496 6.45657 0.333496 8.66671V25.3334C0.333496 27.5435 1.21147 29.6631 2.77427 31.2259C4.33708 32.7887 6.45669 33.6667 8.66683 33.6667H25.3335C27.5436 33.6667 29.6632 32.7887 31.2261 31.2259C32.7889 29.6631 33.6668 27.5435 33.6668 25.3334V8.66671C33.6668 6.45657 32.7889 4.33695 31.2261 2.77415C29.6632 1.21135 27.5436 0.333374 25.3335 0.333374H8.66683ZM23.2168 14.8067C23.3665 14.6469 23.4833 14.4592 23.5605 14.2543C23.6376 14.0494 23.6737 13.8313 23.6666 13.6125C23.6595 13.3937 23.6093 13.1784 23.519 12.9789C23.4287 12.7795 23.2999 12.5997 23.1402 12.45C22.9804 12.3003 22.7927 12.1836 22.5878 12.1064C22.3829 12.0292 22.1648 11.9932 21.946 12.0003C21.7271 12.0074 21.5118 12.0576 21.3124 12.1479C21.1129 12.2382 20.9332 12.3669 20.7835 12.5267L15.6452 18.01L13.1068 15.755C12.7743 15.4786 12.3472 15.3422 11.916 15.3747C11.4847 15.4073 11.083 15.6062 10.7957 15.9294C10.5084 16.2526 10.358 16.6749 10.3762 17.107C10.3945 17.5391 10.5799 17.9472 10.8935 18.245L14.6435 21.5784C14.968 21.8666 15.3921 22.0169 15.8256 21.9973C16.2592 21.9777 16.668 21.7897 16.9652 21.4734L23.2152 14.8067H23.2168Z" fill="#A5A5A5"/>
</svg>
