<svg width="33" height="33" viewBox="0 0 40 40" fill="none" xmlns="http://www.w3.org/2000/svg">
<path d="M15 36.6666C14.558 36.6666 14.1341 36.491 13.8215 36.1784C13.509 35.8659 13.3334 35.4419 13.3334 34.9999V29.9999H6.66671C5.78265 29.9999 4.93481 29.6487 4.30968 29.0236C3.68456 28.3985 3.33337 27.5506 3.33337 26.6666V6.66659C3.33337 5.78253 3.68456 4.93468 4.30968 4.30956C4.93481 3.68444 5.78265 3.33325 6.66671 3.33325H33.3334C34.2174 3.33325 35.0653 3.68444 35.6904 4.30956C36.3155 4.93468 36.6667 5.78253 36.6667 6.66659V26.6666C36.6667 27.5506 36.3155 28.3985 35.6904 29.0236C35.0653 29.6487 34.2174 29.9999 33.3334 29.9999H23.1667L17 36.1833C16.6667 36.4999 16.25 36.6666 15.8334 36.6666H15ZM16.6667 26.6666V31.7999L21.8 26.6666H33.3334V6.66659H6.66671V26.6666H16.6667Z" fill="#C4C4C4"/>
</svg>
