<svg width="31" height="32" viewBox="0 0 31 32" fill="none" xmlns="http://www.w3.org/2000/svg">
<path d="M15.4665 31.7221C6.9605 31.7221 0.0263062 24.8031 0.0263062 16.3151C0.0263062 7.82856 6.9605 0.909546 15.4665 0.909546C23.9725 0.909546 30.9069 7.82856 30.9069 16.3151C30.9069 24.8031 23.9725 31.7221 15.4665 31.7221ZM15.4665 3.30783C8.25495 3.30783 2.43011 9.12018 2.43011 16.3151C2.43011 23.5115 8.25495 29.3237 15.4665 29.3237C22.6782 29.3237 28.5029 23.5115 28.5029 16.3151C28.5029 9.12018 22.6782 3.30783 15.4665 3.30783Z" fill="#CD3266"/>
<path d="M22.5865 18.7148H15.4674C14.8202 18.7148 14.2655 18.1616 14.2655 17.5158V6.81441C14.2655 6.1686 14.8202 5.61523 15.4674 5.61523C16.1147 5.61523 16.6693 6.1686 16.6693 6.81441V16.3166H22.5865C23.2337 16.3166 23.7884 16.8699 23.7884 17.5158C23.7884 18.1616 23.2337 18.7148 22.5865 18.7148Z" fill="#CD3266"/>
</svg>
