<svg width="47" height="38" viewBox="0 0 47 38" fill="none" xmlns="http://www.w3.org/2000/svg">
<path d="M43.6041 0.898682H3.94031C2.27579 0.898682 0.888916 2.28136 0.888916 3.94283V25.2531C0.888916 26.9131 2.27579 28.2972 3.94031 28.2972H43.6041C45.2672 28.2972 46.654 26.9131 46.654 25.2531V3.94283C46.654 2.28136 45.2672 0.898682 43.6041 0.898682ZM36.0219 25.3456H11.336C10.6895 21.5632 7.63814 18.5176 3.84776 17.8732V11.5076C7.63814 10.8618 10.6895 7.81769 11.336 4.03529H36.0219C36.6697 7.81769 39.7197 10.8618 43.5115 11.5076V17.8732C39.7197 18.4266 36.6697 21.4707 36.0219 25.3456ZM43.6041 8.37104C41.4768 7.81769 39.8122 6.15622 39.2584 4.03529H43.6041V8.37104ZM8.28458 4.03529C7.73069 6.15622 6.06617 7.81769 3.94031 8.37104V4.03529H8.28458ZM3.84776 20.9173C5.97362 21.4707 7.63813 23.1307 8.19202 25.2531H3.84776V20.9173ZM43.6041 25.3456H39.2584C39.8122 23.2232 41.4768 21.5632 43.6041 21.0098V25.3456Z" fill="#CD3266"/>
<path d="M42.0307 29.8677H5.41829C4.58532 29.8677 3.84631 30.5135 3.84631 31.4352C3.84631 32.3584 4.49276 33.0042 5.41829 33.0042H42.0307C42.8637 33.0042 43.6027 32.3584 43.6027 31.4352C43.6027 30.5135 42.8637 29.8677 42.0307 29.8677Z" fill="#CD3266"/>
<path d="M38.9807 34.478H8.46968C7.63671 34.478 6.89771 35.1239 6.89771 36.0471C6.89771 36.8778 7.54558 37.6147 8.46968 37.6147H38.9807C39.8122 37.6147 40.5512 36.9689 40.5512 36.0471C40.5512 35.1239 39.8122 34.478 38.9807 34.478Z" fill="#CD3266"/>
<path d="M23.7251 5.51025C18.6404 5.51025 14.5724 9.57006 14.5724 14.6441C14.5724 19.7181 18.6404 23.7764 23.7251 23.7764C28.8098 23.7764 32.8779 19.7181 32.8779 14.6441C32.8779 9.57006 28.8098 5.51025 23.7251 5.51025ZM23.7251 20.7323C20.3961 20.7323 17.6224 17.9642 17.6224 14.6441C17.6224 11.3226 20.3961 8.5544 23.7251 8.5544C27.0542 8.5544 29.8279 11.3226 29.8279 14.6441C29.8279 18.0566 27.0542 20.7323 23.7251 20.7323Z" fill="#CD3266"/>
</svg>
