<svg width="35" height="39" viewBox="0 0 35 39" fill="none" xmlns="http://www.w3.org/2000/svg">
<path d="M30.6839 0.294445V18.5553C30.6839 18.6413 30.6839 19.0864 30.669 19.7422C30.301 19.4654 29.9154 19.2127 29.5146 18.9855C27.4671 17.8456 25.1011 17.4026 22.7771 17.724C20.4531 18.0454 18.2983 19.1136 16.6409 20.7659C15.0212 22.3275 13.9644 24.377 13.6343 26.5967C13.5498 27.1645 13.508 27.7378 13.509 28.3118C13.4661 30.6328 14.2159 32.8997 15.6357 34.7419L15.6536 34.7657H12.5545C11.1571 34.7656 9.78271 34.4114 8.56102 33.7365C7.33932 33.0616 6.31058 32.0882 5.57183 30.9082C4.75887 29.8149 4.32072 28.4906 4.32205 27.1308V0.276642H0V27.5966C0.000790711 30.6208 1.20873 33.5208 3.35826 35.6592C5.50778 37.7976 8.42294 38.9992 11.4628 39H35V0.294445H30.6839ZM17.8848 27.1634C18.1102 25.8747 18.7472 24.6927 19.7013 23.7926C19.7699 23.7213 19.8444 23.6531 19.919 23.5848C20.8309 22.7292 21.9862 22.1747 23.2269 21.9973C23.5648 21.9494 23.9057 21.9256 24.247 21.9261C25.8523 21.9233 27.4005 22.5183 28.5868 23.5942C29.7732 24.67 30.5117 26.1487 30.657 27.7391C30.6719 27.932 30.6809 28.1248 30.6809 28.3325V34.7627H24.2619C22.5535 34.7449 20.9201 34.0617 19.7122 32.8595C18.5044 31.6574 17.8183 30.0321 17.8012 28.3325C17.7945 27.9411 17.8225 27.5499 17.8848 27.1634Z" fill="white" fill-opacity="0.8"/>
</svg>
