<svg width="40" height="40" viewBox="0 0 40 40" fill="none" xmlns="http://www.w3.org/2000/svg">
<path d="M6.66659 3.33325C5.78253 3.33325 4.93468 3.68444 4.30956 4.30956C3.68444 4.93468 3.33325 5.78253 3.33325 6.66659V23.3333H6.66659V6.66659H23.3333V3.33325H6.66659ZM13.3333 9.99992C12.4492 9.99992 11.6013 10.3511 10.9762 10.9762C10.3511 11.6013 9.99992 12.4492 9.99992 13.3333V29.9999H13.3333V13.3333H29.9999V9.99992H13.3333ZM33.3333 19.9999V33.3333H19.9999V19.9999H33.3333ZM33.3333 16.6666H19.9999C19.1159 16.6666 18.268 17.0178 17.6429 17.6429C17.0178 18.268 16.6666 19.1159 16.6666 19.9999V33.3333C16.6666 34.2173 17.0178 35.0652 17.6429 35.6903C18.268 36.3154 19.1159 36.6666 19.9999 36.6666H33.3333C34.2173 36.6666 35.0652 36.3154 35.6903 35.6903C36.3154 35.0652 36.6666 34.2173 36.6666 33.3333V19.9999C36.6666 19.1159 36.3154 18.268 35.6903 17.6429C35.0652 17.0178 34.2173 16.6666 33.3333 16.6666Z" fill="#A5A5A5"/>
</svg>
