<svg width="34" height="34" viewBox="0 0 34 34" fill="none" xmlns="http://www.w3.org/2000/svg">
<path d="M18.6666 13.6667H15.3333V7.00001H18.6666V13.6667ZM18.6666 17H15.3333V20.3333H18.6666V17ZM33.6666 3.66668V23.6667C33.6666 24.5507 33.3155 25.3986 32.6903 26.0237C32.0652 26.6488 31.2174 27 30.3333 27H6.99998L0.333313 33.6667V3.66668C0.333313 2.78262 0.684502 1.93478 1.30962 1.30965C1.93474 0.684533 2.78259 0.333344 3.66665 0.333344H30.3333C31.2174 0.333344 32.0652 0.684533 32.6903 1.30965C33.3155 1.93478 33.6666 2.78262 33.6666 3.66668ZM30.3333 3.66668H3.66665V25.6667L5.66665 23.6667H30.3333V3.66668Z" fill="#C4C4C4"/>
</svg>
