<svg width="142" height="30" viewBox="0 0 142 30" fill="none" xmlns="http://www.w3.org/2000/svg">
<path d="M23.3882 0.0136156V13.9792C23.3882 14.0451 23.3882 14.3855 23.3768 14.887C23.0963 14.6753 22.8024 14.482 22.4969 14.3083C20.9362 13.4365 19.1328 13.0977 17.3614 13.3435C15.5899 13.5893 13.9475 14.4063 12.6842 15.6699C11.4496 16.8642 10.6441 18.4316 10.3925 20.1292C10.3281 20.5635 10.2962 21.0019 10.297 21.4409C10.2643 23.216 10.8358 24.9497 11.918 26.3586L11.9317 26.3768H9.56944C8.50427 26.3767 7.45668 26.1058 6.52546 25.5897C5.59425 25.0735 4.81011 24.3291 4.24702 23.4266C3.62735 22.5905 3.29338 21.5777 3.2944 20.5377V0H0V20.894C0.000602704 23.2068 0.921331 25.4247 2.55976 27.0601C4.1982 28.6955 6.42022 29.6145 8.73731 29.6151H26.678V0.0136156H23.3882ZM13.6323 20.5627C13.8041 19.5771 14.2897 18.673 15.0169 17.9847C15.0692 17.9302 15.126 17.878 15.1829 17.8258C15.8779 17.1714 16.7585 16.7474 17.7043 16.6117C17.9618 16.5751 18.2217 16.5569 18.4818 16.5572C19.7054 16.5551 20.8855 17.0102 21.7898 17.8329C22.694 18.6557 23.2569 19.7866 23.3677 21.0029C23.3791 21.1504 23.3859 21.2979 23.3859 21.4568V26.3745H18.4932C17.1909 26.3609 15.9459 25.8383 15.0253 24.919C14.1046 23.9996 13.5817 22.7566 13.5686 21.4568C13.5635 21.1575 13.5848 20.8583 13.6323 20.5627Z" fill="black"/>
<path d="M20.312 3.1387H6.40686V4.42089H20.312V3.1387Z" fill="black"/>
<path d="M20.312 6.00259H6.40686V7.28478H20.312V6.00259Z" fill="black"/>
<path d="M20.312 8.86865H6.40686V10.1508H20.312V8.86865Z" fill="black"/>
<path d="M74.6115 9.8718L66.9951 19.7798L74.6115 29.6288H69.6483L64.5601 22.9615L59.4423 29.6288H54.5087L62.1251 19.7798L54.5087 9.8718H59.3195L64.5601 16.6299L69.7711 9.8718H74.6115Z" fill="white"/>
<path d="M77.2943 19.757C77.293 17.9252 77.8028 16.1292 78.7665 14.5702C79.7301 13.0112 81.1097 11.7509 82.7505 10.9303C84.3913 10.1098 86.2286 9.76147 88.0565 9.92441C89.8845 10.0873 91.6309 10.7551 93.1001 11.8529V0.0136108H97.0743V29.6287H87.1843C85.8838 29.635 84.5949 29.384 83.3921 28.8902C82.1893 28.3963 81.0965 27.6694 80.1769 26.7514C79.2573 25.8335 78.529 24.7428 78.0343 23.5422C77.5395 22.3417 77.288 21.0552 77.2943 19.757ZM81.2389 19.757C81.2555 21.3258 81.8872 22.8256 82.9986 23.935C84.11 25.0443 85.6126 25.6749 87.1843 25.6914H93.0955V19.757C93.0651 18.2071 92.427 16.7309 91.3181 15.6455C90.2092 14.5602 88.718 13.9522 87.165 13.9522C85.6119 13.9522 84.1208 14.5602 83.0119 15.6455C81.903 16.7309 81.2648 18.2071 81.2344 19.757H81.2389Z" fill="white"/>
<path d="M109.647 9.88541C112.266 9.89971 114.773 10.9444 116.625 12.7926C118.476 14.6408 119.523 17.1434 119.537 19.7571C119.537 21.7089 118.957 23.6167 117.87 25.2394C116.783 26.8621 115.239 28.1267 113.432 28.8734C111.626 29.6202 109.638 29.8154 107.72 29.4345C105.802 29.0536 104.04 28.1137 102.658 26.7336C101.275 25.3535 100.333 23.5951 99.9518 21.6808C99.5702 19.7666 99.7658 17.7823 100.514 15.979C101.262 14.1757 102.529 12.6343 104.155 11.5496C105.78 10.465 107.692 9.88586 109.647 9.88541ZM109.647 25.6915C111.039 25.7052 112.392 25.236 113.475 24.3642C114.559 23.4923 115.305 22.2719 115.587 20.9116C115.868 19.5513 115.668 18.1356 115.02 16.9064C114.371 15.6773 113.316 14.7111 112.033 14.173C110.75 13.6349 109.319 13.5583 107.986 13.9564C106.653 14.3544 105.499 15.2023 104.723 16.3552C103.947 17.508 103.596 18.8943 103.73 20.2768C103.864 21.6594 104.476 22.9525 105.459 23.935C105.998 24.501 106.648 24.9493 107.369 25.2517C108.09 25.554 108.865 25.7038 109.647 25.6915Z" fill="white"/>
<path d="M142 25.6915V29.6289H132.11C130.809 29.6355 129.52 29.3846 128.317 28.8909C127.114 28.3971 126.021 27.6702 125.102 26.7522C124.182 25.8342 123.454 24.7434 122.959 23.5427C122.465 22.342 122.213 21.0554 122.22 19.7571C122.221 17.3131 123.131 14.9565 124.774 13.1441C126.417 11.3316 128.675 10.1924 131.111 9.94713C133.548 9.70186 135.988 10.368 137.96 11.8165C139.933 13.265 141.296 15.3927 141.786 17.7873H137.694C137.305 16.6385 136.562 15.6422 135.57 14.9416C134.562 14.2229 133.351 13.8415 132.112 13.8523C130.559 13.8826 129.08 14.5196 127.993 15.6265C126.906 16.7333 126.297 18.2217 126.297 19.7719C126.297 21.3221 126.906 22.8105 127.993 23.9173C129.08 25.0242 130.559 25.6612 132.112 25.6915H142Z" fill="white"/>
<path d="M32.0459 9.8718V23.8102C32.0459 27.0236 34.7151 29.6288 38.0072 29.6288H51.8259V9.8718H47.8926V25.7074H39.3031C38.8714 25.7122 38.4429 25.632 38.0422 25.4715C37.6415 25.311 37.2764 25.0733 36.9677 24.772C36.6591 24.4706 36.4129 24.1116 36.2433 23.7152C36.0737 23.3189 35.9839 22.8931 35.9792 22.4622V9.8718H32.0459Z" fill="white"/>
</svg>
